#!OML:ASF H:\Dans Jumps\Project 1\Capture day 1\Session 1\subject.ASF
:FULLY-SPECIFIED
:DEGREES
476
root -0.0723204 17.6914 0.906054 9.95966 -1.29793 -1.55413
lowerback 2.35778 -0.359289 -0.414106
upperback 2.37338 -0.500265 2.11178
thorax 1.13396 -0.274366 2.4051
lowerneck -13.9606 0.0739711 -1.32628
upperneck 27.6711 0.271143 0.575119
head 11.2764 0.050393 0.474067
rclavicle 9.93923e-017 9.93923e-015
rhumerus -39.9572 -29.7396 -66.3934
rradius 17.4609
rwrist 48.4053
rhand -20.8012 -24.7507
rfingers 7.12502
rthumb 5.56625 -54.6576
lclavicle 9.93923e-017 9.93923e-015
lhumerus -35.1694 -0.16645 85.3731
lradius 15.308
lwrist 5.50972
lhand -26.2077 -4.18108
lfingers 7.12502
lthumb 0.345094 25.7984
rfemur -23.4921 -0.471855 18.6923
rtibia 24.5087
rfoot -10.6417 -1.58656
rtoes 13.3855
lfemur -22.334 5.99063 -16.4142
ltibia 21.5915
lfoot -6.24043 6.68788
ltoes -2.3051
477
root -0.075719 17.6958 0.926187 9.98191 -1.25915 -1.60526
lowerback 2.23201 -0.350002 -0.401566
upperback 2.32856 -0.487997 2.11987
thorax 1.15776 -0.267962 2.40545
lowerneck -13.9097 0.053447 -1.34891
upperneck 27.525 0.232701 0.626165
head 11.2107 0.037751 0.490627
rclavicle 4.17448e-015 -1.15295e-014
rhumerus -39.6473 -29.3685 -66.9091
rradius 17.6128
rwrist 47.8701
rhand -20.8668 -24.7051
rfingers 7.12502
rthumb 5.50298 -54.6137
lclavicle 4.17448e-015 -1.15295e-014
lhumerus -34.8779 -0.169945 85.4465
lradius 15.702
lwrist 6.22723
lhand -26.5558 -4.50831
lfingers 7.12502
lthumb 0.00888857 25.4714
rfemur -23.3349 -0.463019 18.7561
rtibia 24.3246
rfoot -10.8277 -1.54018
rtoes 12.9141
lfemur -22.2227 5.92238 -16.3296
ltibia 21.474
lfoot -6.22974 6.74216
ltoes -2.30579
478
root -0.0786678 17.6997 0.945984 9.98989 -1.21421 -1.65601
lowerback 2.12016 -0.34526 -0.385063
upperback 2.28862 -0.48176 2.12999
thorax 1.17906 -0.264553 2.40583
lowerneck -13.8672 0.0361182 -1.39128
upperneck 27.3745 0.201754 0.685976
head 11.1451 0.0274996 0.514745
rclavicle 5.86415e-015 -2.62396e-014
rhumerus -39.3067 -29.0074 -67.4242
rradius 17.7633
rwrist 47.3374
rhand -20.9317 -24.6905
rfingers 7.12502
rthumb 5.44025 -54.6007
lclavicle 5.86415e-015 -2.62396e-014
lhumerus -34.5628 -0.113167 85.5021
lradius 16.0626
lwrist 6.86018
lhand -26.8701 -4.81449
lfingers 7.12502
lthumb -0.294634 25.165
rfemur -23.1693 -0.469525 18.8206
rtibia 24.1539
rfoot -10.9942 -1.47868
rtoes 12.5314
lfemur -22.1072 5.86181 -16.2482
ltibia 21.3738
lfoot -6.22816 6.78347
ltoes -2.31729
479
root -0.0810802 17.7031 0.965513 9.98179 -1.1623 -1.70686
lowerback 2.02481 -0.344112 -0.361622
upperback 2.25264 -0.48022 2.14109
thorax 1.19535 -0.263397 2.40349
lowerneck -13.8274 0.0191132 -1.44153
upperneck 27.2176 0.174244 0.743233
head 11.0779 0.0176767 0.539667
rclavicle 7.55382e-015 -1.98785e-015
rhumerus -38.9432 -28.665 -67.9286
rradius 17.9095
rwrist 46.813
rhand -20.9841 -24.7032
rfingers 7.12502
rthumb 5.38972 -54.6147
lclavicle 7.55382e-015 -1.98785e-015
lhumerus -34.2278 -0.0020748 85.5422
lradius 16.3926
lwrist 7.41286
lhand -27.1461 -5.08447
lfingers 7.12502
lthumb -0.561243 24.8945
rfemur -22.9917 -0.496067 18.8866
rtibia 23.995
rfoot -11.1344 -1.40704
rtoes 12.2369
lfemur -21.9824 5.80844 -16.1696
ltibia 21.2861
lfoot -6.23494 6.81007
ltoes -2.32163
480
root -0.0830524 17.7062 0.984825 9.95879 -1.10651 -1.75302
lowerback 1.94448 -0.345597 -0.337954
upperback 2.21957 -0.482153 2.15207
thorax 1.20638 -0.263961 2.40103
lowerneck -13.7877 0.00370165 -1.48553
upperneck 27.0544 0.151637 0.785886
head 11.0085 0.00893994 0.558789
rclavicle 3.18055e-015 1.70955e-014
rhumerus -38.559 -28.3283 -68.4263
rradius 18.0567
rwrist 46.2742
rhand -21.0163 -24.7358
rfingers 7.12502
rthumb 5.35859 -54.6481
lclavicle 3.18055e-015 1.70955e-014
lhumerus -33.8774 0.134107 85.582
lradius 16.6965
lwrist 7.91406
lhand -27.386 -5.32125
lfingers 7.12502
lthumb -0.792871 24.657
rfemur -22.8055 -0.536592 18.9475
rtibia 23.849
rfoot -11.2443 -1.33301
rtoes 12.0195
lfemur -21.8471 5.76055 -16.0986
ltibia 21.206
lfoot -6.24686 6.82547
ltoes -2.31131
481
root -0.0845625 17.7088 1.00418 9.92431 -1.04818 -1.79092
lowerback 1.87269 -0.349842 -0.316808
upperback 2.18928 -0.487781 2.16098
thorax 1.21564 -0.266401 2.39793
lowerneck -13.7491 -0.0108349 -1.5271
upperneck 26.8912 0.131876 0.820888
head 10.9396 0.00079495 0.575065
rclavicle -2.68359e-015 -5.1684e-015
rhumerus -38.1667 -28.0112 -68.9013
rradius 18.196
rwrist 45.7918
rhand -21.0576 -24.7604
rfingers 7.12502
rthumb 5.31869 -54.6736
lclavicle -2.68359e-015 -5.1684e-015
lhumerus -33.5145 0.273285 85.6314
lradius 16.9731
lwrist 8.37172
lhand -27.6019 -5.55309
lfingers 7.12502
lthumb -1.00145 24.4243
rfemur -22.6145 -0.594452 18.9996
rtibia 23.717
rfoot -11.3229 -1.25357
rtoes 11.8871
lfemur -21.7027 5.72071 -16.0407
ltibia 21.1316
lfoot -6.26187 6.82889
ltoes -2.30899
482
root -0.0857872 17.711 1.02344 9.88023 -0.992424 -1.81763
lowerback 1.81104 -0.354763 -0.303796
upperback 2.16017 -0.494304 2.16595
thorax 1.22051 -0.269352 2.39542
lowerneck -13.72 -0.0225291 -1.55883
upperneck 26.7388 0.116445 0.846415
head 10.8769 -0.00558555 0.586853
rclavicle 4.87022e-015 7.95139e-016
rhumerus -37.7683 -27.7012 -69.3635
rradius 18.334
rwrist 45.344
rhand -21.1062 -24.7764
rfingers 7.12502
rthumb 5.27181 -54.6908
lclavicle 4.87022e-015 7.95139e-016
lhumerus -33.1401 0.408079 85.6896
lradius 17.2317
lwrist 8.79067
lhand -27.7738 -5.71934
lfingers 7.12502
lthumb -1.1674 24.2572
rfemur -22.4233 -0.65628 19.0386
rtibia 23.5997
rfoot -11.3672 -1.18352
rtoes 11.8187
lfemur -21.551 5.69148 -15.9983
ltibia 21.0615
lfoot -6.27979 6.82182
ltoes -2.30471
483
root -0.0868686 17.7128 1.04247 9.82882 -0.944404 -1.83309
lowerback 1.75815 -0.358284 -0.30118
upperback 2.1325 -0.498968 2.16633
thorax 1.22192 -0.27147 2.39407
lowerneck -13.7081 -0.0315193 -1.58105
upperneck 26.6056 0.104935 0.86391
head 10.8248 -0.0102713 0.594753
rclavicle 3.67752e-015 -6.36111e-015
rhumerus -37.3658 -27.4026 -69.8101
rradius 18.4701
rwrist 44.9384
rhand -21.1605 -24.7744
rfingers 7.12502
rthumb 5.2194 -54.6901
lclavicle 3.67752e-015 -6.36111e-015
lhumerus -32.7619 0.537476 85.7566
lradius 17.4761
lwrist 9.13457
lhand -27.9066 -5.83019
lfingers 7.12502
lthumb -1.29571 24.1456
rfemur -22.2359 -0.709651 19.0635
rtibia 23.4961
rfoot -11.3784 -1.1311
rtoes 11.8128
lfemur -21.3955 5.67603 -15.9709
ltibia 20.9973
lfoot -6.29929 6.80557
ltoes -2.29435
